<svg xmlns="http://www.w3.org/2000/svg" viewBox="0 0 192 192" fill="none">
  <rect width="192" height="192" rx="42" fill="url(#g)"/>
  <!-- Basketball seam hints -->
  <path d="M96 16 L96 176" stroke="white" stroke-width="3" stroke-opacity="0.15" stroke-linecap="round"/>
  <path d="M16 96 L176 96" stroke="white" stroke-width="3" stroke-opacity="0.15" stroke-linecap="round"/>
  <!-- Circuit nodes (the IQ) -->
  <g stroke="white" stroke-width="2.5" stroke-linecap="round" fill="none" opacity="0.85">
    <path d="M68 72 L88 72 Q96 72 96 80 L96 96"/>
    <path d="M124 72 L104 72 Q96 72 96 80"/>
    <path d="M68 120 L88 120 Q96 120 96 112 L96 96"/>
    <path d="M124 120 L104 120 Q96 120 96 112"/>
    <circle cx="68" cy="72" r="4" fill="white"/>
    <circle cx="124" cy="72" r="4" fill="white"/>
    <circle cx="68" cy="120" r="4" fill="white"/>
    <circle cx="124" cy="120" r="4" fill="white"/>
    <circle cx="96" cy="96" r="6" fill="white"/>
  </g>
  <!-- IQ text -->
  <text x="96" y="162" text-anchor="middle" fill="white" font-family="Inter, -apple-system, sans-serif" font-size="28" font-weight="900" letter-spacing="-1" opacity="0.9">IQ</text>
  <defs>
    <linearGradient id="g" x1="0" y1="0" x2="192" y2="192">
      <stop offset="0%" stop-color="#FF6B35"/>
      <stop offset="100%" stop-color="#E85A2A"/>
    </linearGradient>
  </defs>
</svg>
